G04 EAGLE Gerber RS-274X export*
G75*
%MOMM*%
%FSLAX34Y34*%
%LPD*%
%INSoldermask Top*%
%IPPOS*%
%AMOC8*
5,1,8,0,0,1.08239X$1,22.5*%
G01*
G04 Define Apertures*
%ADD10C,3.276600*%
%ADD11C,1.609600*%
%ADD12C,2.101600*%
%ADD13C,1.625600*%
%ADD14P,1.539592X8X112.500000*%
%ADD15C,1.778000*%
%ADD16C,1.879600*%
%ADD17C,1.101600*%
D10*
X520700Y863600D03*
X38100Y863600D03*
X101600Y127000D03*
D11*
X51990Y127280D02*
X36910Y127280D01*
X36910Y162280D02*
X51990Y162280D01*
X51990Y203480D02*
X36910Y203480D01*
X36910Y238480D02*
X51990Y238480D01*
D12*
X373692Y488850D03*
X183692Y488850D03*
D13*
X215892Y493250D03*
X241292Y493250D03*
X266692Y493250D03*
X292092Y493250D03*
X317492Y493250D03*
X342892Y493250D03*
X176522Y579610D03*
X176522Y605010D03*
X176522Y630410D03*
X176522Y655810D03*
X176522Y681210D03*
X176522Y706610D03*
X176522Y732010D03*
X176522Y757410D03*
X176522Y554210D03*
X176522Y528810D03*
X379722Y757410D03*
X379722Y732010D03*
X379722Y706610D03*
X379722Y681210D03*
X379722Y655810D03*
X379722Y630410D03*
X379722Y605010D03*
X379722Y579610D03*
X379722Y554210D03*
X379722Y528810D03*
D11*
X51940Y290700D02*
X36860Y290700D01*
X36860Y325700D02*
X51940Y325700D01*
X51940Y360700D02*
X36860Y360700D01*
X36860Y395700D02*
X51940Y395700D01*
X51940Y430700D02*
X36860Y430700D01*
X36860Y465700D02*
X51940Y465700D01*
X51940Y500700D02*
X36860Y500700D01*
X36860Y535700D02*
X51940Y535700D01*
X51940Y570700D02*
X36860Y570700D01*
X36860Y605700D02*
X51940Y605700D01*
X51940Y640700D02*
X36860Y640700D01*
X36860Y675700D02*
X51940Y675700D01*
X51940Y710700D02*
X36860Y710700D01*
X36860Y745700D02*
X51940Y745700D01*
X51940Y780700D02*
X36860Y780700D01*
X36860Y815700D02*
X51940Y815700D01*
X508460Y815700D02*
X523540Y815700D01*
X523540Y780700D02*
X508460Y780700D01*
X508460Y745700D02*
X523540Y745700D01*
X523540Y710700D02*
X508460Y710700D01*
X508460Y675700D02*
X523540Y675700D01*
X523540Y640700D02*
X508460Y640700D01*
X508460Y605700D02*
X523540Y605700D01*
X523540Y570700D02*
X508460Y570700D01*
X508460Y535700D02*
X523540Y535700D01*
X523540Y500700D02*
X508460Y500700D01*
X508460Y465700D02*
X523540Y465700D01*
X523540Y430700D02*
X508460Y430700D01*
X508460Y395700D02*
X523540Y395700D01*
X523540Y360700D02*
X508460Y360700D01*
X508460Y325700D02*
X523540Y325700D01*
X523540Y290700D02*
X508460Y290700D01*
D14*
X462280Y227584D03*
X462280Y252984D03*
D15*
X495300Y228600D03*
X520700Y228600D03*
X546100Y228600D03*
X495300Y190500D03*
X520700Y190500D03*
X546100Y190500D03*
X495300Y152400D03*
X520700Y152400D03*
X546100Y152400D03*
X495300Y114300D03*
X520700Y114300D03*
X546100Y114300D03*
X190500Y393700D03*
X190500Y419100D03*
X190500Y444500D03*
D16*
X215900Y876300D03*
X241300Y876300D03*
X266700Y876300D03*
X292100Y876300D03*
X317500Y876300D03*
X342900Y876300D03*
D15*
X101600Y254000D03*
X101600Y279400D03*
X101600Y304800D03*
X101600Y330200D03*
X139700Y254000D03*
X139700Y279400D03*
X139700Y304800D03*
X139700Y330200D03*
D16*
X234442Y342900D03*
X234442Y317500D03*
X234442Y292100D03*
X234442Y266700D03*
X234442Y241300D03*
X234442Y215900D03*
X234442Y190500D03*
X234442Y165100D03*
X234442Y139700D03*
X234442Y114300D03*
X386842Y114300D03*
X386842Y139700D03*
X386842Y165100D03*
X386842Y190500D03*
X386842Y215900D03*
X386842Y241300D03*
X386842Y266700D03*
X386842Y292100D03*
X386842Y317500D03*
X386842Y342900D03*
D15*
X190500Y266700D03*
X190500Y114300D03*
X431800Y165100D03*
X431800Y190500D03*
X431800Y317500D03*
X431800Y139700D03*
X431800Y114300D03*
X139700Y215900D03*
X101600Y215900D03*
X431800Y266700D03*
X431800Y292100D03*
D17*
X139700Y114300D03*
X88900Y876300D03*
X469900Y876300D03*
M02*
