M48
;GenerationSoftware,Autodesk,EAGLE,9.7.0*%
;CreationDate,2021-03-29T15:34:16Z*%
FMAT,2
ICI,OFF
METRIC,TZ,000.000
T6C0.350
T5C0.813
T4C1.000
T3C1.016
T2C2.000
T1C3.175
%
G90
M71
T1
X10160Y12700
X3810Y86360
X52070Y86360
T2
X18369Y48885
X37369Y48885
T3
X43180Y13970
X43180Y11430
X13970Y21590
X10160Y21590
X43180Y26670
X43180Y29210
X43180Y31750
X43180Y19050
X43180Y16510
X19050Y11430
X21589Y49325
X24129Y49325
X26669Y49325
X29209Y49325
X31749Y49325
X34289Y49325
X17652Y57961
X17652Y60501
X17652Y63041
X17652Y65581
X17652Y68121
X17652Y70661
X17652Y73201
X17652Y75741
X17652Y55421
X17652Y52881
X37972Y75741
X37972Y73201
X37972Y70661
X37972Y68121
X37972Y65581
X37972Y63041
X37972Y60501
X37972Y57961
X37972Y55421
X37972Y52881
X19050Y26670
X38684Y34290
X38684Y31750
X38684Y29210
X38684Y26670
X38684Y24130
X38684Y21590
X38684Y19050
X38684Y16510
X38684Y13970
X38684Y11430
X23444Y11430
X23444Y13970
X23444Y16510
X23444Y19050
X23444Y21590
X23444Y24130
X23444Y26670
X23444Y29210
X23444Y31750
X23444Y34290
X13970Y33020
X13970Y30480
X13970Y27940
X13970Y25400
X10160Y33020
X10160Y30480
X10160Y27940
X10160Y25400
X34290Y87630
X31750Y87630
X29210Y87630
X26670Y87630
X24130Y87630
X49530Y22860
X52070Y22860
X54610Y22860
X49530Y19050
X52070Y19050
X54610Y19050
X49530Y15240
X52070Y15240
X54610Y15240
X49530Y11430
X52070Y11430
X54610Y11430
X19050Y39370
X19050Y41910
X19050Y44450
X21590Y87630
T4
X51600Y46570
X4440Y67570
X51600Y29070
X51600Y32570
X51600Y36070
X51600Y39570
X51600Y43070
X4445Y12728
X51600Y50070
X51600Y53570
X51600Y57070
X51600Y60570
X51600Y64070
X51600Y67570
X51600Y71070
X51600Y74570
X51600Y78070
X51600Y81570
X4440Y81570
X4440Y78070
X4440Y74570
X4440Y71070
X4445Y16228
X4440Y64070
X4440Y60570
X4440Y57070
X4440Y53570
X4440Y50070
X4440Y46570
X4440Y43070
X4440Y39570
X4440Y36070
X4440Y32570
X4440Y29070
X4445Y23848
X4445Y20348
T5
X46228Y22758
X46228Y25298
T6
X27940Y22860
X27940Y34290
X34290Y29210
X31750Y31750
X36195Y44958
X40640Y39370
M30